<svg width="165" height="38" viewBox="0 0 165 38" fill="none" xmlns="http://www.w3.org/2000/svg">
  <g clip-path="url(#clip0)">
    <path d="M74.0612 14.1116C71.6484 14.1116 69.9099 15.0875 68.7387 16.578V7.05963C68.7387 6.92092 68.7114 6.78356 68.6583 6.65541C68.6052 6.52725 68.5274 6.41081 68.4293 6.31272C68.3313 6.21464 68.2148 6.13683 68.0867 6.08375C67.9585 6.03067 67.8212 6.00335 67.6824 6.00336H66.0869C65.8068 6.00337 65.5382 6.11467 65.3401 6.31275C65.142 6.51084 65.0308 6.7795 65.0308 7.05963V30.4967C65.0308 30.6354 65.0581 30.7727 65.1112 30.9009C65.1642 31.029 65.242 31.1455 65.3401 31.2435C65.4382 31.3416 65.5546 31.4194 65.6828 31.4725C65.8109 31.5256 65.9482 31.5529 66.0869 31.5529H67.6824C67.9566 31.5587 68.2219 31.4554 68.42 31.2658C68.618 31.0761 68.7327 30.8155 68.7387 30.5413V29.5298C69.9099 31.0204 71.6484 31.9961 74.0612 31.9961C78.8165 31.9961 82.5602 28.2524 82.5602 23.0538C82.5602 17.8552 78.8165 14.1116 74.0612 14.1116ZM73.754 28.3568C70.7662 28.3568 68.762 26.0765 68.762 23.0539C68.762 20.0314 70.7662 17.7521 73.754 17.7521C76.8626 17.7521 78.7451 20.1531 78.7451 23.0539C78.7451 25.9559 76.8627 28.357 73.7541 28.357L73.754 28.3568Z" fill="#FCF6F1"/>
    <path d="M101.684 14.5559H100.07C99.9318 14.5559 99.7944 14.5832 99.6663 14.6363C99.5381 14.6894 99.4217 14.7672 99.3236 14.8653C99.2255 14.9633 99.1477 15.0798 99.0946 15.2079C99.0415 15.3361 99.0142 15.4734 99.0142 15.6122V24.0119C99.0142 27.2945 97.1865 28.5014 94.8619 28.5014C92.5383 28.5014 90.7106 27.2945 90.7106 24.0119V15.6122C90.7106 15.4735 90.6832 15.3361 90.6302 15.208C90.5771 15.0798 90.4993 14.9634 90.4012 14.8653C90.3031 14.7672 90.1867 14.6894 90.0585 14.6364C89.9304 14.5833 89.793 14.556 89.6543 14.556H88.041C87.7609 14.556 87.4922 14.6672 87.2941 14.8653C87.096 15.0634 86.9847 15.3321 86.9847 15.6122V24.3491C86.9847 29.7609 90.8702 31.9962 94.8619 31.9962C98.8367 31.9962 102.74 29.7609 102.74 24.3491V15.6122C102.74 15.3321 102.629 15.0634 102.431 14.8653C102.233 14.6672 101.964 14.5559 101.684 14.5559Z" fill="#FCF6F1"/>
    <path d="M136.145 14.5559C134.274 14.5559 132.419 15.0517 130.979 16.1403C130.329 15.6627 129.847 15.1305 129.323 15.1305C129.043 15.133 128.776 15.2451 128.579 15.4426C128.381 15.6402 128.269 15.9074 128.267 16.1867V30.94C128.267 31.0787 128.294 31.216 128.347 31.3442C128.4 31.4723 128.478 31.5888 128.576 31.6868C128.674 31.7849 128.79 31.8627 128.919 31.9158C129.047 31.9688 129.184 31.9962 129.323 31.9962H130.936C131.075 31.9962 131.212 31.9688 131.34 31.9158C131.468 31.8627 131.585 31.7849 131.683 31.6868C131.781 31.5888 131.859 31.4723 131.912 31.3442C131.965 31.216 131.992 31.0787 131.992 30.94V22.5401C131.992 19.2576 133.82 18.0507 136.145 18.0507C138.468 18.0507 140.296 19.2576 140.296 22.5401V30.9399C140.296 31.0786 140.323 31.216 140.376 31.3441C140.429 31.4723 140.507 31.5887 140.605 31.6868C140.703 31.7848 140.82 31.8626 140.948 31.9157C141.076 31.9688 141.213 31.9961 141.352 31.9961H142.966C143.246 31.9961 143.514 31.8848 143.712 31.6868C143.911 31.4887 144.022 31.22 144.022 30.9399V22.203C144.022 16.7912 140.136 14.5559 136.145 14.5559Z" fill="#FCF6F1"/>
    <path d="M115.628 14.1116C110.625 14.1116 107.164 17.7313 107.164 23.0539C107.164 28.4478 110.766 31.9962 115.858 31.9962C118.09 31.9962 120.15 31.5285 122.012 30.245C122.24 30.0731 122.391 29.8191 122.435 29.5371C122.478 29.255 122.41 28.9672 122.244 28.7349L121.608 27.8235C121.444 27.599 121.199 27.4466 120.925 27.3977C120.651 27.3488 120.369 27.4073 120.137 27.561C118.919 28.3137 117.521 28.7241 116.089 28.7493C113.676 28.7493 111.529 27.4719 111.032 24.4204H122.538C123.121 24.4204 123.622 24.1111 123.644 23.7288C123.656 23.5018 123.665 23.2689 123.665 23.036C123.647 17.7313 120.382 14.1116 115.628 14.1116ZM111.05 21.599C111.441 19.1148 112.912 17.4121 115.556 17.4121C117.917 17.4121 119.46 18.9551 119.868 21.599H111.05Z" fill="#FCF6F1"/>
    <path d="M156.962 14.1116C151.959 14.1116 148.499 17.7313 148.499 23.0539C148.499 28.4478 152.101 31.9962 157.193 31.9962C159.426 31.9962 161.485 31.5285 163.347 30.245C163.575 30.0731 163.726 29.8192 163.77 29.5372C163.813 29.2552 163.745 28.9675 163.579 28.7351L162.943 27.8234C162.778 27.599 162.534 27.4466 162.26 27.3977C161.986 27.3489 161.704 27.4074 161.472 27.5611C160.254 28.3139 158.855 28.7244 157.423 28.7494C155.01 28.7494 152.863 27.472 152.368 24.4205H163.872C164.456 24.4205 164.957 24.1112 164.979 23.7289C164.992 23.5019 165 23.269 165 23.0361C164.982 17.7313 161.717 14.1116 156.962 14.1116ZM152.384 21.599C152.775 19.1148 154.248 17.4121 156.892 17.4121C159.251 17.4121 160.795 18.9551 161.203 21.599H152.384Z" fill="#FCF6F1"/>
    <path d="M90.7105 11.7615C91.7394 11.7615 92.5734 10.9275 92.5734 9.89861C92.5734 8.86976 91.7394 8.03571 90.7105 8.03571C89.6817 8.03571 88.8476 8.86976 88.8476 9.89861C88.8476 10.9275 89.6817 11.7615 90.7105 11.7615Z" fill="#FCF6F1"/>
    <path d="M99.0141 11.7615C100.043 11.7615 100.877 10.9275 100.877 9.89861C100.877 8.86976 100.043 8.03571 99.0141 8.03571C97.9853 8.03571 97.1512 8.86976 97.1512 9.89861C97.1512 10.9275 97.9853 11.7615 99.0141 11.7615Z" fill="#FCF6F1"/>
    <path d="M27.4282 17.5411L25.4025 16.3716L23.3587 15.1916C22.9162 14.9361 22.5576 15.1433 22.5576 15.6542V22.3457C22.5576 22.8565 22.9163 23.0637 23.3587 22.8082L25.4025 21.6282L27.4285 20.4584L29.1535 19.4625C29.2503 19.4298 29.3344 19.3677 29.394 19.2847C29.4537 19.2017 29.4857 19.1021 29.4857 18.9999C29.4857 18.8977 29.4537 18.7981 29.394 18.7151C29.3344 18.6322 29.2503 18.57 29.1535 18.5374L27.4282 17.5411Z" fill="#FF5D7E"/>
    <path d="M14.2886 4.68012C14.4564 3.97136 14.6376 3.28669 14.8341 2.63318C14.8366 2.62488 14.8389 2.61615 14.8414 2.60788C14.8598 2.54696 14.8747 2.4858 14.8867 2.42462C14.8891 2.41216 14.8903 2.3993 14.8924 2.38675C14.9008 2.33863 14.9083 2.29054 14.9129 2.24254C14.9158 2.2113 14.9163 2.17937 14.9177 2.14779C14.919 2.12006 14.9212 2.09226 14.9212 2.06453C14.9213 2.01894 14.9183 1.98253 14.9159 1.94592C14.9143 1.91934 14.9141 1.89255 14.9113 1.86617C14.9096 1.84997 14.9061 1.83435 14.904 1.81828C14.8511 1.42016 14.6725 1.0493 14.3943 0.759649C14.3876 0.75273 14.3817 0.745121 14.3749 0.738317C14.3407 0.703864 14.3043 0.671593 14.2673 0.639752C14.2581 0.631799 14.2497 0.622957 14.2403 0.615176C14.047 0.455038 13.8235 0.335332 13.5831 0.263152C13.5222 0.244838 13.4605 0.229583 13.3981 0.217444C13.3913 0.216123 13.3842 0.21552 13.3774 0.214286C13.3234 0.204381 13.2694 0.196399 13.2156 0.191317C13.1924 0.189164 13.1687 0.189049 13.1453 0.187757C13.1065 0.185604 13.0675 0.182819 13.029 0.182991C13.0031 0.183135 12.9782 0.185661 12.9527 0.186838C12.4918 0.208308 12.0548 0.397948 11.7243 0.719884C11.721 0.723043 11.7174 0.725856 11.7142 0.729043C11.6768 0.765994 11.6417 0.805299 11.6074 0.845466C11.6021 0.851782 11.596 0.857496 11.5907 0.863869C11.4304 1.05727 11.3105 1.28091 11.2383 1.52152C11.1832 1.7045 11.1334 1.8856 11.0826 2.06464C10.8157 3.00466 10.5745 3.99283 10.3591 5.02916C10.3463 5.07209 10.3447 5.11762 10.3547 5.16132C10.3646 5.20502 10.3856 5.24542 10.4157 5.2786C10.4459 5.31178 10.4841 5.33662 10.5266 5.3507C10.5691 5.36479 10.6146 5.36764 10.6586 5.35899C11.1805 5.30551 11.7084 5.25491 12.2422 5.20719C12.7658 5.16041 13.2945 5.11639 13.8283 5.07512C13.9355 5.06214 14.0364 5.01769 14.1183 4.94738C14.2003 4.87708 14.2595 4.78408 14.2886 4.68012Z" fill="#23A160"/>
    <path d="M9.64767 13.037C9.54367 13.053 9.44791 13.103 9.37543 13.1793C9.30295 13.2556 9.25785 13.3538 9.24721 13.4584C9.12171 15.28 9.05878 17.1397 9.05878 18.9996C9.05878 20.8596 9.12171 22.7193 9.24718 24.5408C9.25782 24.6455 9.30291 24.7437 9.37539 24.82C9.44786 24.8962 9.54361 24.9463 9.64761 24.9622C10.1462 25.0224 10.6517 25.0797 11.1642 25.134C11.6659 25.1871 12.1735 25.2374 12.6871 25.285C12.7335 25.2912 12.7807 25.2867 12.8251 25.2718C12.8694 25.2569 12.9098 25.232 12.943 25.1991C12.9762 25.1661 13.0014 25.1259 13.0167 25.0817C13.0319 25.0374 13.0368 24.9903 13.0309 24.9438C12.8761 22.9983 12.7974 20.9995 12.7974 18.9996C12.7974 16.9998 12.8761 15.001 13.0309 13.0555C13.0368 13.009 13.0319 12.9618 13.0166 12.9176C13.0013 12.8733 12.9761 12.8332 12.9429 12.8002C12.9096 12.7672 12.8693 12.7423 12.8249 12.7275C12.7805 12.7126 12.7333 12.7081 12.6869 12.7143C12.1733 12.7617 11.6658 12.812 11.1643 12.8653C10.6519 12.9195 10.1464 12.9768 9.64767 13.037Z" fill="#23A160"/>
    <path d="M14.9131 35.7569C14.9084 35.7081 14.9008 35.6593 14.8922 35.6105C14.8902 35.5987 14.889 35.5866 14.8868 35.5749C14.8747 35.5137 14.8598 35.4524 14.8414 35.3914C14.8388 35.3828 14.8365 35.3739 14.8339 35.3654C14.6375 34.712 14.4563 34.0275 14.2884 33.3189C14.2593 33.215 14.2001 33.122 14.1181 33.0517C14.0362 32.9814 13.9353 32.937 13.8281 32.924C13.2943 32.8828 12.7656 32.8388 12.2421 32.7919C11.7084 32.7442 11.1805 32.6937 10.6584 32.6401C10.6144 32.6315 10.569 32.6343 10.5264 32.6484C10.4839 32.6625 10.4457 32.6873 10.4156 32.7205C10.3854 32.7537 10.3644 32.7941 10.3545 32.8378C10.3446 32.8815 10.3461 32.927 10.3589 32.97C10.5733 34.0047 10.8145 34.9929 11.0825 35.9345C11.1334 36.114 11.1833 36.2956 11.2363 36.4712C11.249 36.5137 11.2621 36.5484 11.2748 36.5831C11.2814 36.6013 11.2875 36.6197 11.2947 36.6376C11.3067 36.6674 11.3201 36.6963 11.3335 36.7252C11.3445 36.7489 11.3555 36.7726 11.3675 36.7957C11.38 36.8202 11.3933 36.8442 11.4068 36.868C11.4226 36.8955 11.439 36.9225 11.4561 36.949C11.4685 36.9684 11.4809 36.9879 11.494 37.0068C11.5162 37.0387 11.5397 37.0697 11.5638 37.1001C11.574 37.1131 11.5836 37.1265 11.5941 37.1391C11.6296 37.1816 11.6667 37.2227 11.7058 37.2619C11.7144 37.2705 11.7235 37.2782 11.7323 37.2866C11.7628 37.3162 11.7941 37.3449 11.8266 37.3724C11.8447 37.3877 11.8636 37.402 11.8822 37.4165C11.9062 37.4353 11.9305 37.4536 11.9554 37.4711C11.9778 37.4869 12.0005 37.5022 12.0236 37.517C12.0458 37.5314 12.0685 37.5448 12.0913 37.5581C12.1169 37.573 12.1423 37.5881 12.1686 37.6018C12.19 37.613 12.2122 37.6229 12.2341 37.6334C12.282 37.6561 12.3307 37.6767 12.3803 37.6953C12.4063 37.7051 12.432 37.7154 12.4586 37.724C12.4842 37.7324 12.5102 37.7391 12.5363 37.7464C12.5659 37.7545 12.5955 37.7626 12.6256 37.7693C12.6493 37.7747 12.6733 37.7794 12.6974 37.7839C12.7341 37.7907 12.7712 37.7963 12.8086 37.8009C12.8272 37.8032 12.8457 37.8059 12.8644 37.8077C12.9222 37.8131 12.9804 37.8167 13.0391 37.8167C13.1217 37.8159 13.2041 37.8098 13.286 37.7986C13.3035 37.7963 13.3208 37.7934 13.3381 37.7906C13.67 37.74 13.9817 37.5996 14.2394 37.3845C14.2556 37.3711 14.2704 37.356 14.2861 37.3421C14.3159 37.3156 14.3462 37.2896 14.3741 37.2615C14.3852 37.2503 14.3951 37.238 14.4059 37.2265C14.4371 37.1934 14.4683 37.1602 14.497 37.1251C14.4992 37.1224 14.5011 37.1193 14.5033 37.1166C14.719 36.8484 14.8573 36.5264 14.9033 36.1852C14.9056 36.1676 14.9094 36.1504 14.9113 36.1326C14.9142 36.1067 14.9142 36.0802 14.9159 36.054C14.9182 36.0171 14.9213 35.9804 14.9216 35.9429C14.9213 35.9066 14.9191 35.8786 14.9178 35.8506C14.9164 35.8195 14.916 35.7879 14.9131 35.7569Z" fill="#23A160"/>
    <path d="M35.8919 2.24265C35.8965 2.29051 35.9039 2.33843 35.9123 2.38641C35.9145 2.39907 35.9157 2.41205 35.9181 2.42465C35.93 2.4859 35.9451 2.54698 35.9634 2.60788C35.9659 2.61612 35.9681 2.62479 35.9706 2.633C36.1671 3.28658 36.3484 3.97128 36.5161 4.68009C36.5452 4.78405 36.6045 4.87705 36.6864 4.94736C36.7683 5.01767 36.8692 5.06213 36.9764 5.07512C37.5103 5.11626 38.039 5.16028 38.5625 5.20719C39.0962 5.25485 39.6241 5.30545 40.1461 5.35899C40.1901 5.36764 40.2356 5.36478 40.2781 5.3507C40.3207 5.33661 40.3588 5.31178 40.389 5.27859C40.4191 5.24541 40.4401 5.20501 40.4501 5.1613C40.46 5.1176 40.4584 5.07207 40.4456 5.02913C40.2312 3.99439 39.9901 3.00623 39.7221 2.06464C39.6713 1.88563 39.6214 1.70455 39.5687 1.52945C39.4967 1.2863 39.3763 1.0602 39.2147 0.864702C39.2039 0.851553 39.1916 0.839695 39.1803 0.826861C39.1513 0.793815 39.1225 0.760826 39.0915 0.729933C39.0828 0.72132 39.0735 0.713999 39.0648 0.705701C38.7686 0.422752 38.3884 0.243821 37.9816 0.195911C37.976 0.195251 37.9707 0.193959 37.9651 0.193356C37.9314 0.189738 37.8972 0.189221 37.8632 0.187441C37.8339 0.18592 37.8049 0.183163 37.7753 0.182991C37.7388 0.182819 37.702 0.185546 37.6654 0.187527C37.64 0.188733 37.6141 0.18902 37.5889 0.191375C37.5359 0.196399 37.4829 0.204323 37.4298 0.213999C37.4221 0.215377 37.4142 0.216066 37.4065 0.21753C37.3449 0.22957 37.2833 0.244777 37.2219 0.263152C36.9813 0.335332 36.7577 0.455079 36.5644 0.615291C36.5549 0.623158 36.5464 0.632115 36.537 0.640154C36.5002 0.671909 36.4639 0.704065 36.4299 0.738346C36.4228 0.745466 36.4165 0.753419 36.4096 0.760654C36.1323 1.04978 35.9542 1.41961 35.9011 1.81664C35.8989 1.83332 35.8953 1.84954 35.8935 1.86637C35.8906 1.89221 35.8906 1.91848 35.8889 1.94449C35.8866 1.98164 35.8835 2.01859 35.8832 2.05629C35.8836 2.09181 35.8857 2.1192 35.8869 2.14653C35.8884 2.17866 35.8889 2.21098 35.8919 2.24265Z" fill="#23A160"/>
    <path d="M36.5163 33.3191C36.3486 34.0277 36.1673 34.7123 35.9708 35.3657C35.9683 35.3742 35.966 35.3831 35.9635 35.3916C35.945 35.4526 35.9301 35.5138 35.9181 35.575C35.9158 35.5868 35.9147 35.5991 35.9126 35.611C35.9039 35.6596 35.8965 35.7083 35.8918 35.7568C35.8889 35.7882 35.8884 35.8203 35.887 35.8521C35.8858 35.8797 35.8836 35.9073 35.8836 35.9347C35.8834 35.9811 35.8865 36.0183 35.889 36.0558C35.8906 36.0815 35.8907 36.1075 35.8935 36.1328C35.8953 36.1512 35.8992 36.169 35.9017 36.1872C35.9479 36.5277 36.0861 36.8491 36.3014 37.1169L36.3077 37.1253C36.3362 37.1603 36.3672 37.1931 36.3982 37.226C36.4093 37.2377 36.4194 37.2504 36.4308 37.2618C36.4585 37.2897 36.4885 37.3156 36.5181 37.3418C36.534 37.356 36.5489 37.3712 36.5653 37.3849C36.823 37.5999 37.1347 37.7404 37.4665 37.791C37.4839 37.7939 37.5012 37.7967 37.5188 37.799C37.599 37.8101 37.6798 37.816 37.7608 37.8167C37.8208 37.8169 37.8807 37.814 37.9404 37.8081C37.9591 37.8063 37.9777 37.8036 37.9962 37.8013C38.0336 37.7967 38.0707 37.7911 38.1074 37.7843C38.1314 37.7799 38.1554 37.7752 38.1792 37.7698C38.2093 37.763 38.2389 37.755 38.2684 37.7468C38.2944 37.7396 38.3206 37.7328 38.3463 37.7244C38.3728 37.7158 38.3984 37.7056 38.4243 37.6957C38.4741 37.6771 38.5229 37.6564 38.5707 37.6337C38.5927 37.6233 38.6149 37.6133 38.6363 37.6021C38.6625 37.5884 38.688 37.5734 38.7136 37.5585C38.7363 37.5451 38.7591 37.5316 38.7813 37.5173C38.8042 37.5025 38.827 37.4872 38.8495 37.4714C38.8744 37.4538 38.8987 37.4354 38.9226 37.4168C38.9413 37.4023 38.96 37.388 38.9782 37.3727C39.0107 37.3453 39.042 37.3165 39.0726 37.2869C39.0812 37.2785 39.0906 37.2708 39.0991 37.2623C39.1381 37.223 39.1752 37.1819 39.2107 37.1394C39.2213 37.1268 39.2308 37.1133 39.2411 37.1004C39.2652 37.07 39.2887 37.0391 39.3108 37.0072C39.324 36.9882 39.3364 36.9687 39.3489 36.9492C39.3659 36.9227 39.3822 36.8957 39.3979 36.8684C39.4116 36.8446 39.4248 36.8206 39.4374 36.7961C39.4493 36.7729 39.4603 36.7493 39.4714 36.7256C39.4847 36.6966 39.4982 36.6677 39.5102 36.6379C39.5174 36.62 39.5234 36.6016 39.5301 36.5835C39.5428 36.5487 39.5559 36.514 39.5667 36.478C39.6215 36.2958 39.6714 36.1143 39.7224 35.9348C39.9893 34.9947 40.2305 34.0066 40.4459 32.9702C40.4588 32.9273 40.4603 32.8818 40.4504 32.8381C40.4405 32.7944 40.4194 32.754 40.3893 32.7208C40.3592 32.6876 40.321 32.6628 40.2784 32.6487C40.2359 32.6346 40.1904 32.6317 40.1465 32.6404C39.6245 32.694 39.0966 32.7446 38.5628 32.7922C38.0392 32.839 37.5105 32.883 36.9767 32.9243C36.8696 32.9372 36.7686 32.9816 36.6867 33.0519C36.6047 33.1222 36.5455 33.2151 36.5163 33.3191Z" fill="#23A160"/>
    <path d="M41.1573 24.9622C41.2613 24.9462 41.357 24.8962 41.4295 24.8199C41.502 24.7437 41.5471 24.6455 41.5577 24.5408C41.6832 22.7193 41.7461 20.8595 41.7461 18.9996C41.7461 17.1397 41.6832 15.2799 41.5577 13.4584C41.5471 13.3537 41.502 13.2555 41.4295 13.1793C41.357 13.103 41.2612 13.053 41.1572 13.037C40.6586 12.9768 40.1531 12.9195 39.6406 12.8652C39.1391 12.8121 38.6315 12.7618 38.118 12.7142C38.0716 12.708 38.0244 12.7125 37.98 12.7274C37.9356 12.7423 37.8953 12.7672 37.862 12.8001C37.8288 12.8331 37.8036 12.8733 37.7883 12.9175C37.7731 12.9618 37.7682 13.0089 37.774 13.0554C37.9288 15.0009 38.0075 16.9998 38.0075 18.9996C38.0075 20.9994 37.9288 22.9983 37.774 24.9438C37.7681 24.9902 37.773 25.0374 37.7883 25.0817C37.8035 25.1259 37.8287 25.1661 37.8619 25.199C37.8951 25.232 37.9355 25.2569 37.9798 25.2718C38.0242 25.2867 38.0714 25.2912 38.1178 25.285C38.6315 25.2376 39.1392 25.1872 39.6407 25.134C40.1531 25.0797 40.6586 25.0224 41.1573 24.9622Z" fill="#23A160"/>
    <path d="M0.011091 10.7007C0.0116078 10.7052 0.0126126 10.7096 0.0131581 10.7141C0.0201349 10.7733 0.0293798 10.8327 0.0421848 10.8921C0.0636276 10.9902 0.092852 11.0864 0.129581 11.1798C0.133715 11.1904 0.136959 11.2014 0.141295 11.2119C0.153784 11.2424 0.168398 11.2716 0.182351 11.3012C0.193434 11.3245 0.203942 11.3481 0.215943 11.3709C0.22915 11.3961 0.243735 11.4204 0.258005 11.4448C0.27302 11.4704 0.288065 11.496 0.304172 11.5208C0.318757 11.5432 0.334146 11.565 0.349621 11.5868C0.367403 11.6118 0.385749 11.6364 0.40466 11.6605C0.421063 11.6813 0.437878 11.7017 0.455105 11.7218C0.474571 11.7444 0.494841 11.7664 0.515398 11.7881C0.534318 11.8082 0.553239 11.8283 0.572992 11.8473C0.592745 11.8663 0.613187 11.8841 0.633284 11.9022C0.65588 11.9222 0.678102 11.9425 0.70153 11.9614C0.717063 11.974 0.733572 11.9852 0.749506 11.9973C0.849988 12.0731 0.957786 12.1387 1.0713 12.193C1.08674 12.2005 1.1019 12.2084 1.11758 12.2153C1.14991 12.2297 1.18304 12.2425 1.21614 12.2551C1.23659 12.2628 1.25694 12.2705 1.2777 12.2776C1.30862 12.2881 1.33992 12.2977 1.37144 12.3065C1.39682 12.3137 1.42246 12.3202 1.44827 12.3263C1.47698 12.3331 1.50552 12.3396 1.5344 12.3451C1.56716 12.3512 1.60044 12.3558 1.63369 12.3602C1.65734 12.3634 1.68086 12.3672 1.70469 12.3695C1.75964 12.3746 1.81517 12.3776 1.87136 12.3779L1.87997 12.3783H1.88031H1.88143C2.01455 12.3781 2.14728 12.3639 2.27741 12.3359L2.27891 12.3356C4.45935 11.8663 6.87368 11.4773 9.44173 11.1685C10.0662 11.0934 10.6996 11.0231 11.3419 10.9578C11.971 10.8935 12.6072 10.8337 13.2507 10.7784C13.4689 10.7596 13.6878 10.7414 13.9076 10.7236C17.6047 10.4261 21.5034 10.2772 25.4023 10.2772C29.3012 10.2772 33.1998 10.4261 36.897 10.7236C37.1167 10.7412 37.3356 10.7595 37.5537 10.7783C38.197 10.8335 38.8332 10.8933 39.4625 10.9578C40.104 11.0234 40.7374 11.0936 41.3627 11.1684C43.9313 11.4773 46.3463 11.8664 48.5271 12.3359L48.5314 12.3366C48.6602 12.3641 48.7915 12.378 48.9231 12.3783H48.9245H48.925C48.9315 12.3783 48.9379 12.3775 48.9445 12.3774C48.9966 12.3769 49.0482 12.3743 49.0993 12.3696C49.1271 12.367 49.1546 12.3626 49.1823 12.3588C49.2106 12.3549 49.2388 12.351 49.2666 12.3459C49.3006 12.3396 49.3341 12.3321 49.3675 12.3239C49.3869 12.3192 49.4062 12.3143 49.4254 12.309C49.4632 12.2985 49.5008 12.2872 49.5377 12.2744C49.5494 12.2703 49.5609 12.2659 49.5725 12.2616C49.81 12.1742 50.0275 12.04 50.2121 11.8669L50.2179 11.8616C50.2523 11.8291 50.2851 11.7949 50.317 11.7598L50.3323 11.743C50.3629 11.7084 50.3923 11.6727 50.4205 11.6357L50.4337 11.618C50.4624 11.5792 50.4903 11.5394 50.5163 11.4982L50.5191 11.4935C50.7573 11.1118 50.851 10.6574 50.7831 10.2127C50.7153 9.76787 50.4905 9.36205 50.1494 9.06865L50.1478 9.06712C50.1037 9.02931 50.0575 8.99368 50.01 8.95992L50.0026 8.95438C49.9543 8.92053 49.904 8.88889 49.8522 8.85949L49.8476 8.85662C49.6826 8.76373 49.5045 8.69629 49.3193 8.65659C49.3075 8.65406 49.2954 8.65165 49.2837 8.64912C49.1648 8.6236 49.044 8.59865 48.9238 8.57358H48.9233C46.6583 8.10152 44.1605 7.71122 41.5096 7.40258C41.2959 7.3777 41.0814 7.35334 40.8659 7.32951C40.2294 7.25919 39.5852 7.19338 38.9334 7.13207C38.2937 7.07218 37.6473 7.01687 36.9942 6.96615C33.2587 6.6741 29.331 6.52762 25.4025 6.52762C21.474 6.52762 17.5462 6.67404 13.8106 6.96609C13.1582 7.01712 12.5118 7.07244 11.8714 7.13204C11.2194 7.19308 10.5752 7.25888 9.93885 7.32946C9.72335 7.35329 9.50886 7.37764 9.29539 7.40252C6.64457 7.71117 4.14666 8.10146 1.88169 8.5735H1.88132C1.7593 8.59894 1.63684 8.62423 1.5162 8.65013C1.5061 8.65228 1.49576 8.65435 1.48568 8.65653C1.42388 8.66986 1.36278 8.68627 1.30262 8.70571C1.29475 8.70827 1.28723 8.71145 1.27937 8.71432C1.22875 8.73138 1.17888 8.7499 1.13067 8.77089C1.11367 8.77826 1.09751 8.78702 1.08077 8.79489C1.04264 8.81283 1.0046 8.83098 0.968082 8.85125C0.946003 8.86354 0.925016 8.8774 0.903425 8.89055C0.873422 8.90881 0.843132 8.92684 0.814421 8.94665C0.791309 8.96262 0.769345 8.98013 0.747037 8.99707C0.721197 9.01671 0.694927 9.03594 0.670207 9.05682C0.649219 9.07447 0.629552 9.09351 0.609397 9.11206C0.584734 9.1348 0.559727 9.15725 0.536357 9.18119C0.51936 9.19859 0.503597 9.21717 0.48729 9.23523C0.46257 9.26256 0.437763 9.28978 0.414737 9.31849C0.402076 9.33425 0.390534 9.3509 0.378418 9.36709C0.353841 9.39985 0.329351 9.4327 0.306928 9.46695C0.298028 9.48062 0.290075 9.49497 0.28149 9.5089C0.258148 9.54674 0.235208 9.58481 0.214536 9.62426C0.207875 9.63701 0.202191 9.65033 0.195759 9.66325C0.175403 9.70442 0.155564 9.74591 0.138338 9.78857C0.132595 9.80293 0.127829 9.81774 0.122346 9.83224C0.106555 9.87399 0.0912517 9.91596 0.0784467 9.95888C0.0727045 9.97795 0.0685702 9.99761 0.063517 10.0169C0.0531811 10.0559 0.0428739 10.0949 0.0350646 10.1347C0.0298679 10.1614 0.0267671 10.1888 0.0226615 10.2159C0.0176083 10.2493 0.0118662 10.2826 0.00862183 10.3164C0.00549234 10.3494 0.00497555 10.3831 0.00356871 10.4166C0.00230544 10.4463 -0.000163701 10.4758 8.56441e-06 10.5057C0.000152119 10.5309 0.00267868 10.5554 0.0037984 10.5804C0.00575074 10.6204 0.00664078 10.6604 0.011091 10.7007ZM38.2977 8.9565C38.3209 8.71682 38.4354 8.49524 38.6174 8.3376C38.7995 8.17996 39.0351 8.09832 39.2757 8.10956C39.5162 8.12079 39.7432 8.22405 39.9098 8.39797C40.0763 8.5719 40.1697 8.80318 40.1705 9.04398C40.169 9.07596 40.1658 9.10783 40.1609 9.13948C40.1397 9.34952 40.048 9.54619 39.9008 9.69748C39.7535 9.84877 39.5594 9.94577 39.35 9.97269C39.3102 9.97937 39.27 9.98342 39.2297 9.98484C38.9806 9.9833 38.7422 9.88367 38.5661 9.70756C38.39 9.53145 38.2904 9.29303 38.2888 9.04398C38.2888 9.01404 38.295 8.98576 38.2977 8.9565ZM10.8135 8.49558C10.9252 8.34092 11.0813 8.224 11.2612 8.1604C11.441 8.09681 11.6359 8.08958 11.82 8.13966C12.004 8.18975 12.1684 8.29478 12.2912 8.44074C12.414 8.58669 12.4894 8.76663 12.5072 8.95653C12.5101 8.98579 12.5161 9.01395 12.5161 9.04398C12.5167 9.19258 12.4821 9.33922 12.4151 9.47188C12.3481 9.60453 12.2507 9.71944 12.1308 9.80719C12.0109 9.89494 11.8718 9.95304 11.7251 9.97672C11.5784 10.0004 11.4282 9.98899 11.2868 9.94343C11.1453 9.89787 11.0167 9.81946 10.9114 9.71461C10.8061 9.60976 10.7271 9.48145 10.6809 9.3402C10.6347 9.19896 10.6227 9.04878 10.6457 8.90198C10.6688 8.75517 10.7263 8.61591 10.8135 8.49561L10.8135 8.49558Z" fill="#2FD780"/>
    <path d="M50.5194 26.5057L50.5165 26.501C50.4907 26.4598 50.4628 26.42 50.4339 26.3812L50.4207 26.3635C50.3926 26.3266 50.3632 26.2908 50.3326 26.2563C50.3275 26.2505 50.3223 26.245 50.3172 26.2393C50.2853 26.2042 50.2524 26.17 50.218 26.1375L50.2125 26.1325C50.0273 25.9589 49.8092 25.8244 49.5709 25.737C49.5602 25.7331 49.5496 25.729 49.5388 25.7252C49.5011 25.7121 49.4628 25.7006 49.4243 25.6899C49.406 25.6849 49.3876 25.6802 49.3691 25.6757C49.3349 25.6673 49.3006 25.6597 49.2659 25.6532C49.239 25.6483 49.2117 25.6446 49.1844 25.6408C49.156 25.6368 49.1276 25.6323 49.0988 25.6296C49.0494 25.6251 48.9993 25.6227 48.9488 25.6221C48.9408 25.6221 48.9329 25.621 48.9249 25.621H48.9247H48.9234C48.8577 25.6211 48.7922 25.6245 48.7269 25.6314H48.7262C48.661 25.6384 48.5962 25.6488 48.5321 25.6625L48.5274 25.6633C46.3465 26.1327 43.9315 26.5217 41.3629 26.8307C40.7383 26.9058 40.1048 26.976 39.4625 27.0414C38.8335 27.1057 38.1973 27.1655 37.554 27.2208C37.3358 27.2395 37.1168 27.2578 36.8972 27.2756C33.2001 27.5731 29.3014 27.7222 25.4026 27.7222C21.5037 27.7222 17.6051 27.5731 13.9079 27.2758C13.6881 27.2581 13.4691 27.2398 13.2509 27.221C12.6078 27.1658 11.9716 27.106 11.3424 27.0416C10.7008 26.9759 10.0674 26.9057 9.442 26.8309C6.87367 26.522 4.45903 26.133 2.27844 25.6636L2.27769 25.6634C2.14755 25.6355 2.01482 25.6213 1.88171 25.6212H1.88079H1.88051C1.87215 25.6212 1.86394 25.6222 1.85556 25.6223C1.8054 25.623 1.75564 25.6252 1.70649 25.6298C1.68031 25.6323 1.65455 25.6364 1.62863 25.64C1.5977 25.6441 1.56678 25.6484 1.53638 25.654C1.50597 25.6597 1.47591 25.6666 1.44594 25.6737C1.42148 25.6795 1.39713 25.6857 1.37307 25.6925C1.34074 25.7016 1.30867 25.7113 1.27692 25.7221C1.25682 25.7289 1.23701 25.7365 1.21714 25.744C1.18366 25.7567 1.15027 25.7695 1.11766 25.7842C1.10181 25.7912 1.08654 25.7992 1.07097 25.8066C0.960579 25.8596 0.855588 25.9231 0.75748 25.9963C0.738416 26.0107 0.718836 26.0241 0.700374 26.039C0.678755 26.0564 0.658256 26.0753 0.637412 26.0936C0.615161 26.1132 0.592795 26.1328 0.571377 26.1535C0.552944 26.1713 0.535402 26.1899 0.517716 26.2085C0.495723 26.2317 0.473989 26.2552 0.453174 26.2795C0.437153 26.2982 0.421515 26.3172 0.40626 26.3366C0.385962 26.3622 0.366496 26.3884 0.347575 26.4151C0.33322 26.4354 0.318864 26.4557 0.305169 26.4766C0.287943 26.5031 0.271865 26.5303 0.255901 26.5577C0.242551 26.5806 0.228856 26.6034 0.216453 26.6271C0.203504 26.6516 0.192048 26.6771 0.180162 26.7023C0.16707 26.7303 0.153289 26.7577 0.141489 26.7865C0.135976 26.7998 0.131756 26.8139 0.126501 26.8274C0.091181 26.9183 0.0629505 27.0118 0.0420628 27.1071C0.0292864 27.1664 0.020099 27.2255 0.0131222 27.2845C0.0125767 27.2893 0.0114857 27.2939 0.0109689 27.2987C0.00651871 27.3389 0.00554254 27.3788 0.00367633 27.4187C0.0025566 27.4437 3.00474e-05 27.4683 -0.000113507 27.4934C-0.000285772 27.5234 0.00218336 27.553 0.00347535 27.5828C0.00485347 27.6162 0.00537027 27.6498 0.00849976 27.6827C0.0117441 27.7167 0.0175437 27.7501 0.0226255 27.7838C0.0266737 27.8107 0.0297458 27.8379 0.0349138 27.8644C0.0428093 27.9044 0.0531452 27.9437 0.0636246 27.9829C0.068649 28.002 0.0727834 28.0214 0.078382 28.0404C0.0913306 28.0836 0.106691 28.1259 0.122625 28.1679C0.127994 28.1821 0.132559 28.1966 0.138244 28.2106C0.155758 28.2537 0.175568 28.2954 0.196183 28.3369C0.202413 28.3495 0.207983 28.3625 0.2145 28.375C0.235316 28.4147 0.258428 28.4531 0.282 28.4913C0.290383 28.5048 0.298106 28.5189 0.306835 28.5322C0.329487 28.5669 0.354236 28.6001 0.3791 28.6332C0.390986 28.649 0.402212 28.6652 0.414558 28.6806C0.4379 28.7098 0.463079 28.7374 0.488172 28.7651C0.504136 28.7827 0.519525 28.8009 0.536177 28.8179C0.55995 28.8423 0.585359 28.8652 0.610509 28.8883C0.630205 28.9064 0.649413 28.925 0.669884 28.9423C0.695207 28.9636 0.721936 28.9833 0.748465 29.0033C0.770285 29.0199 0.791532 29.0369 0.814156 29.0525C0.843498 29.0726 0.874276 29.0911 0.904882 29.1097C0.925812 29.1225 0.946254 29.136 0.967759 29.1479C1.00508 29.1686 1.04376 29.1872 1.0826 29.2054C1.09854 29.2129 1.11418 29.2212 1.13023 29.2283C1.17944 29.2497 1.23012 29.2685 1.28171 29.2859C1.28863 29.2883 1.29526 29.2912 1.30224 29.2935C1.36188 29.3127 1.42301 29.3291 1.48562 29.3427C1.49587 29.3449 1.50643 29.347 1.51674 29.3493C1.63733 29.3751 1.75946 29.4004 1.88137 29.4258H1.88168C4.14666 29.8978 6.64456 30.2881 9.29543 30.5968C9.50897 30.6217 9.72343 30.646 9.93882 30.6698C10.5755 30.7401 11.2199 30.806 11.8719 30.8673C12.5114 30.9272 13.1576 30.9825 13.8106 31.0332C17.5462 31.3252 21.474 31.4717 25.4025 31.4717C29.3311 31.4717 33.2587 31.3253 36.9943 31.0332C37.6465 30.9822 38.2927 30.9269 38.9329 30.8673C39.585 30.8062 40.2294 30.7404 40.866 30.6698C41.0816 30.646 41.2961 30.6217 41.5096 30.5968C44.1605 30.2881 46.6584 29.8978 48.9234 29.4258L48.9251 29.4254C49.0448 29.4004 49.1648 29.3756 49.2832 29.3503C49.2951 29.3477 49.3074 29.3452 49.3194 29.3427C49.5047 29.303 49.6829 29.2355 49.848 29.1425L49.8509 29.1408C49.9034 29.111 49.9541 29.079 50.0031 29.0447L50.0088 29.0404C50.057 29.0062 50.1036 28.9702 50.1482 28.9319L50.1484 28.9317C50.49 28.6384 50.7152 28.2325 50.7832 27.7874C50.8513 27.3423 50.7576 26.8876 50.5192 26.5057H50.5194ZM12.5073 29.0427C12.4746 29.2524 12.3614 29.4411 12.1918 29.5686C12.0222 29.6961 11.8095 29.7523 11.599 29.7254C11.3885 29.6984 11.1969 29.5903 11.0648 29.4242C10.9328 29.2581 10.8708 29.047 10.8921 28.8359C10.9134 28.6247 11.0162 28.4302 11.1787 28.2938C11.3412 28.1573 11.5506 28.0896 11.7622 28.1052C11.9738 28.1208 12.171 28.2183 12.3118 28.3771C12.4526 28.5358 12.5259 28.7433 12.5161 28.9552C12.5161 28.9852 12.51 29.0135 12.5073 29.0427ZM39.9914 29.5036C39.8798 29.6583 39.7237 29.7752 39.5438 29.8388C39.364 29.9024 39.1691 29.9096 38.985 29.8596C38.801 29.8095 38.6366 29.7045 38.5138 29.5585C38.3909 29.4126 38.3156 29.2327 38.2977 29.0428C38.295 29.0135 38.2889 28.9853 38.2889 28.9552C38.2896 28.7151 38.3824 28.4843 38.5481 28.3105C38.7138 28.1367 38.9398 28.033 39.1796 28.0208C39.4195 28.0085 39.6549 28.0887 39.8374 28.2448C40.0199 28.4009 40.1357 28.621 40.1608 28.8598C40.1657 28.8914 40.1689 28.9233 40.1704 28.9552C40.1701 29.1523 40.1075 29.3443 39.9914 29.5036H39.9914Z" fill="#2FD780"/>
  </g>
  <defs>
    <clipPath id="clip0">
      <rect width="165" height="37.634" fill="white" transform="translate(0 0.182983)"/>
    </clipPath>
  </defs>
</svg>
